<svg xmlns="http://www.w3.org/2000/svg" version="1.1" xmlns:xlink="http://www.w3.org/1999/xlink" width="4.3899999cm" height="5.0799999cm"><svg width="4.3899999cm" height="5.0799999cm" viewBox="0 0 43.899998 50.8" version="1.1" id="SvgjsSvg1057" inkscape:version="1.2.2 (b0a8486541, 2022-12-01)" sodipodi:docname="logo.svg" xml:space="preserve" inkscape:export-filename="logo.png" inkscape:export-xdpi="138.86105" inkscape:export-ydpi="138.86105" xmlns:inkscape="http://www.inkscape.org/namespaces/inkscape" xmlns:sodipodi="http://sodipodi.sourceforge.net/DTD/sodipodi-0.dtd" xmlns:xlink="http://www.w3.org/1999/xlink" xmlns="http://www.w3.org/2000/svg" xmlns:svg="http://www.w3.org/2000/svg"><sodipodi:namedview id="SvgjsSodipodi:namedview1056" pagecolor="#505050" bordercolor="#eeeeee" borderopacity="1" inkscape:showpageshadow="0" inkscape:pageopacity="0" inkscape:pagecheckerboard="0" inkscape:deskcolor="#505050" inkscape:document-units="mm" showgrid="false" inkscape:zoom="4.7307819" inkscape:cx="104.42248" inkscape:cy="143.73945" inkscape:window-width="1604" inkscape:window-height="1161" inkscape:window-x="312" inkscape:window-y="0" inkscape:window-maximized="1" inkscape:current-layer="layer1"></sodipodi:namedview><defs id="SvgjsDefs1055"><clipPath clipPathUnits="userSpaceOnUse" id="SvgjsClipPath1054"><path d="M 0,396 H 612 V 0 H 0 Z" id="SvgjsPath1053"></path></clipPath><clipPath clipPathUnits="userSpaceOnUse" id="SvgjsClipPath1052"><path d="M 0,396 H 612 V 0 H 0 Z" id="SvgjsPath1051"></path></clipPath></defs><g inkscape:label="drawing" inkscape:groupmode="layer" id="SvgjsG1050" style="display:inline"><path sodipodi:type="star" style="fill:#0070b8;stroke:none;stroke-width:0;stroke-linecap:round;stroke-dasharray:none;stop-color:#000000;fill-opacity:1" id="SvgjsPath1049" inkscape:flatsided="true" sodipodi:sides="6" sodipodi:cx="-25.327684" sodipodi:cy="-0.70625728" sodipodi:r1="15.067081" sodipodi:r2="13.048476" sodipodi:arg1="1.5707963" sodipodi:arg2="2.0943951" inkscape:rounded="0" inkscape:randomized="0" d="m -25.327684,14.360824 -13.048475,-7.5335402 -10e-7,-15.0670815 13.048475,-7.5335413 13.048476,7.5335406 0,15.0670815 z" transform="matrix(1.6821888,0,0,1.6857943,64.555946,26.590605)"></path><path sodipodi:type="star" style="fill:#eaedf0;stroke:none;stroke-width:0;stroke-linecap:round;stroke-dasharray:none;stop-color:#000000;fill-opacity:1" id="SvgjsPath1048" inkscape:flatsided="true" sodipodi:sides="6" sodipodi:cx="-25.327684" sodipodi:cy="-0.70625728" sodipodi:r1="15.067081" sodipodi:r2="13.048476" sodipodi:arg1="1.5707963" sodipodi:arg2="2.0943951" inkscape:rounded="0" inkscape:randomized="0" d="m -25.327684,14.360824 -13.048475,-7.5335402 -10e-7,-15.0670815 13.048475,-7.5335413 13.048476,7.5335406 0,15.0670815 z" transform="matrix(1.5700338,0,0,1.5700338,61.71532,26.508848)"></path><path id="SvgjsPath1047" style="fill:#11292f;stroke:#000000;stroke-width:0.119363;stroke-linecap:round;stroke-dasharray:none;stop-color:#000000;fill-opacity:1" d="m 17.013921,32.697176 c -0.912646,3.53e-4 -1.82491,0.0014 -2.737522,4.92e-4 -0.166818,-0.0053 -0.315423,0.09853 -0.39918,0.237339 -0.152783,0.280404 -0.212762,0.598973 -0.315792,0.899513 -0.13008,0.291214 0.180931,0.561718 0.454443,0.578294 1.782165,0.0066 3.564467,5.76e-4 5.346754,0.0024 0.203928,0.01931 0.426056,-0.04279 0.527963,-0.237338 0.152783,-0.280408 0.212762,-0.598978 0.315793,-0.899516 0.130081,-0.291215 -0.180931,-0.561228 -0.454444,-0.577801 -0.912551,-0.0034 -1.82537,-0.0039 -2.738015,-0.0035 z m -2.578145,0.400659 c 0.0028,-2.3e-5 0.0056,-8.7e-5 0.0084,0 0.97575,9.88e-4 0.436005,-0.0016 1.411689,0.0019 0.146217,0.0089 0.312304,0.153202 0.242765,0.308883 -0.05507,0.160667 -0.08707,0.330696 -0.168751,0.480596 -0.05448,0.104003 -0.173223,0.137133 -0.28224,0.12681 -0.952795,-9.88e-4 -0.389878,0.002 -1.342608,-0.0015 -0.146217,-0.0089 -0.312304,-0.153204 -0.242766,-0.308884 0.05507,-0.160666 0.08708,-0.330694 0.168753,-0.480595 0.04338,-0.07189 0.119001,-0.126552 0.20477,-0.127305 z m 3.577823,0 c 0.0028,-2.3e-5 0.0056,-8.7e-5 0.0084,0 0.975752,9.88e-4 0.436005,-0.0016 1.41169,0.0019 0.146218,0.0089 0.312305,0.153205 0.242765,0.308886 -0.05507,0.160667 -0.08708,0.330695 -0.168751,0.480597 -0.05448,0.104002 -0.173223,0.137133 -0.282239,0.126809 -0.952795,-9.88e-4 -0.38988,0.002 -1.342609,-0.0015 -0.146218,-0.0089 -0.312304,-0.153204 -0.242765,-0.308884 0.05507,-0.160666 0.08707,-0.330693 0.168749,-0.480595 0.04338,-0.07189 0.119004,-0.126553 0.204772,-0.127304 z"></path><g id="SvgjsG1046" transform="matrix(0.98325655,0.09754637,-0.09754637,0.98325655,42.738701,14.374923)" style="stroke:#666666"><path id="SvgjsPath1045" style="fill:#999999;stroke:#11292f;stroke-width:1.07013;stroke-linecap:round;stop-color:#000000;stroke-opacity:1" d="m -23.74225,21.411022 9.216806,-7.488318 c 0.815302,-0.509534 1.181703,0.378698 0.624387,0.822479 l -9.689807,6.865253 c -0.824584,0.532175 -0.734989,0.308506 -0.151386,-0.199414 z" sodipodi:nodetypes="ccccc"></path><circle style="fill:none;stroke:#666666;stroke-width:0.13202;stroke-linecap:round;stroke-dasharray:none;stop-color:#000000" id="SvgjsCircle1044" cx="-24.041" cy="21.800579" r="0.35900199"></circle></g><path id="SvgjsPath1043" style="fill:#3b5058;fill-opacity:1;stroke:none;stroke-width:0.189268;stroke-linecap:round;stroke-dasharray:none;stop-color:#000000" inkscape:transform-center-x="-0.30783875" inkscape:transform-center-y="-0.18669177" d="M -18.749417 17.845959 C -19.45983 17.843253 -18.773626 19.52708 -19.568508 19.887201 C -20.402482 20.265038 -21.256906 18.456309 -21.709517 19.252181 C -22.162133 20.048058 -20.170722 19.857735 -20.069091 20.767649 C -19.96746 21.677563 -21.951699 21.931212 -21.334641 22.60761 C -20.717588 23.284013 -20.283467 21.331381 -19.386682 21.515905 C -18.489896 21.700429 -18.861574 23.665861 -18.0276 23.288024 C -17.193621 22.910192 -18.916698 21.893756 -18.464082 21.097879 C -18.011471 20.302007 -16.257113 21.26303 -16.358739 20.353115 C -16.46037 19.443201 -17.959263 20.767624 -18.576321 20.091226 C -19.193374 19.414823 -17.7374 18.043453 -18.634186 17.858929 C -18.676223 17.850279 -18.714478 17.846092 -18.749417 17.845959 z M -18.84245 18.719673 A 0.16932789 0.16932789 0 0 1 -18.673095 18.888779 A 0.16932789 0.16932789 0 0 1 -18.84245 19.058134 A 0.16932789 0.16932789 0 0 1 -19.011805 18.888779 A 0.16932789 0.16932789 0 0 1 -18.84245 18.719673 z M -20.825079 19.595381 A 0.16932789 0.16932789 0 0 1 -20.655724 19.764737 A 0.16932789 0.16932789 0 0 1 -20.825079 19.934092 A 0.16932789 0.16932789 0 0 1 -20.994434 19.764737 A 0.16932789 0.16932789 0 0 1 -20.825079 19.595381 z M -17.369384 20.309716 A 0.16932789 0.16932789 0 0 1 -17.200029 20.479072 A 0.16932789 0.16932789 0 0 1 -17.369384 20.648427 A 0.16932789 0.16932789 0 0 1 -17.538739 20.479072 A 0.16932789 0.16932789 0 0 1 -17.369384 20.309716 z M -20.603845 21.776547 A 0.16932789 0.16932789 0 0 1 -20.434489 21.945903 A 0.16932789 0.16932789 0 0 1 -20.603845 22.115258 A 0.16932789 0.16932789 0 0 1 -20.7732 21.945903 A 0.16932789 0.16932789 0 0 1 -20.603845 21.776547 z M -18.445126 22.227995 A 0.16932789 0.16932789 0 0 1 -18.275771 22.39735 A 0.16932789 0.16932789 0 0 1 -18.445126 22.566706 A 0.16932789 0.16932789 0 0 1 -18.614482 22.39735 A 0.16932789 0.16932789 0 0 1 -18.445126 22.227995 z " transform="matrix(2.0718754,0,0,2.0718754,67.612142,-16.060635)"></path><circle style="fill:none;stroke:#ffffff;stroke-width:0.355052;stroke-linecap:round;stroke-dasharray:none;stop-color:#000000" id="SvgjsCircle1042" cx="27.807789" cy="26.82366" r="0.96549088"></circle><circle style="fill:none;stroke:#3b5058;stroke-width:0.959208;stroke-linecap:round;stroke-dasharray:none;stroke-opacity:1;stop-color:#000000" id="SvgjsCircle1041" cx="27.807789" cy="26.82366" r="5.8604946"></circle><circle style="fill:none;stroke:#ffffff;stroke-width:0.21493;stroke-linecap:round;stroke-dasharray:none;stroke-opacity:1;stop-color:#000000" id="SvgjsCircle1040" cx="27.807793" cy="26.82366" r="6.3739638"></circle><g id="SvgjsG1039" transform="matrix(1.0183428,0,0,1.0183428,-0.73955476,0.28464998)"><path id="SvgjsPath1038" style="fill:#000000;fill-opacity:1;stroke:none;stroke-width:0.458999;stroke-linecap:round;stroke-dasharray:0.458999, 0.550799;stroke-dashoffset:0;stroke-opacity:1;stop-color:#000000" d="M -11.912591 1.5539898 C -12.775598 1.5793668 -12.294019 2.7558055 -13.355828 2.826341 C -14.488424 2.9015788 -14.046536 1.4988498 -15.142692 1.7936005 C -16.238847 2.0883511 -15.15227 3.0793856 -16.16986 3.5823219 C -17.18745 4.0852584 -17.316847 2.61934 -18.216766 3.3111347 C -19.116686 4.0029292 -17.732859 4.5039739 -18.480524 5.3580413 C -19.228189 6.2121089 -19.908743 4.9076094 -20.475422 5.8911286 C -21.042101 6.8746475 -19.57099 6.8089948 -19.934905 7.8841692 C -20.29882 8.9593439 -21.426007 8.0142915 -21.573173 9.1398034 C -21.72034 10.265315 -20.389062 9.6399034 -20.313824 10.772499 C -20.238586 11.905095 -21.641315 11.463208 -21.346565 12.559363 C -21.051814 13.655519 -20.058922 12.570799 -19.555986 13.588389 C -19.053049 14.605979 -20.518968 14.733519 -19.827173 15.633438 C -19.135378 16.533357 -18.634334 15.149531 -17.780266 15.897196 C -16.926199 16.644861 -18.230698 17.325415 -17.247179 17.892094 C -16.26366 18.458772 -16.33117 16.989519 -15.255996 17.353434 C -14.180821 17.717349 -15.125874 18.844536 -14.000362 18.991702 C -12.87485 19.138869 -13.498404 17.805734 -12.365808 17.730496 C -11.233212 17.655258 -11.6751 19.057987 -10.578944 18.763236 C -9.4827891 18.468486 -10.569366 17.477451 -9.5517761 16.974515 C -8.534186 16.471578 -8.4047889 17.935639 -7.5048695 17.243845 C -6.6049503 16.55205 -7.9887771 16.052863 -7.241112 15.198795 C -6.4934468 14.344728 -5.8147502 15.649227 -5.2480714 14.665708 C -4.6813928 13.682189 -6.150646 13.747842 -5.786731 12.672668 C -5.422816 11.597493 -4.2956292 12.542545 -4.1484628 11.417033 C -4.0012964 10.291522 -5.332574 10.915076 -5.4078118 9.78248 C -5.4830497 8.6498839 -4.0803206 9.0936289 -4.3750713 7.9974735 C -4.6698219 6.9013182 -5.6627139 7.9860377 -6.1656502 6.9684478 C -6.6685867 5.9508577 -5.2026683 5.8233181 -5.894463 4.9233987 C -6.5862575 4.0234795 -7.0873022 5.4054488 -7.9413696 4.6577837 C -8.7954372 3.9101185 -7.4909377 3.2314219 -8.4744569 2.6647431 C -9.4579758 2.0980645 -9.3904656 3.5673177 -10.46564 3.2034027 C -11.540815 2.8394877 -10.595762 1.7123009 -11.721274 1.5651345 C -11.791619 1.5559366 -11.855057 1.552298 -11.912591 1.5539898 z M -12.861747 4.1971369 A 6.0802878 6.0802878 0 0 1 -6.7804652 10.278418 A 6.0802878 6.0802878 0 0 1 -12.861747 16.357842 A 6.0802878 6.0802878 0 0 1 -18.941171 10.278418 A 6.0802878 6.0802878 0 0 1 -12.861747 4.1971369 z " transform="matrix(0.27320088,0,0,0.27320088,9.9844778,23.252931)"></path></g><circle style="fill:#000000;stroke:#000000;stroke-width:0.163542;stroke-linecap:round;stroke-dasharray:none;stop-color:#000000" id="SvgjsCircle1037" cx="20.150553" cy="31.655973" r="0.44471768" transform="rotate(5.6656297)"></circle><path id="SvgjsPath1036" style="fill:#3b5058;fill-opacity:1;stroke:none;stroke-width:0.412494;stroke-linecap:round;stroke-dasharray:0.412494, 0.494993;stroke-dashoffset:0;stroke-opacity:1;stop-color:#000000" d="m 27.99673,18.931007 c -0.607322,0.01576 0.0179,0.59787 -0.670435,0.643596 -0.710539,0.0472 -0.108976,-0.657598 -0.811468,-0.540979 -0.70249,0.116619 0.09408,0.589191 -0.593601,0.774104 -0.687678,0.184914 -0.235212,-0.62348 -0.901455,-0.372053 -0.666242,0.251427 0.207397,0.559623 -0.430993,0.875141 -0.638389,0.31552 -0.352321,-0.566019 -0.95671,-0.189447 -0.60439,0.376573 0.313024,0.508502 -0.251545,0.942503 -0.564566,0.433999 -0.456345,-0.486196 -0.975653,9.99e-4 -0.519312,0.487248 0.405901,0.437746 -0.06314,0.97355 -0.46905,0.535803 -0.542437,-0.388172 -0.956711,0.191026 -0.414274,0.579198 0.483913,0.35022 0.128404,0.967236 -0.355508,0.617015 -0.607611,-0.274731 -0.900929,0.374158 -0.293319,0.64889 0.542471,0.249042 0.314168,0.923557 -0.228304,0.674515 -0.649324,-0.150562 -0.810416,0.543083 -0.16109,0.693645 0.58068,0.138 0.488354,0.844094 -0.09232,0.706094 -0.666707,-0.02131 -0.689378,0.690431 -0.02267,0.711745 0.596394,0.02252 0.643595,0.733058 0.0472,0.710538 -0.657597,0.109502 -0.540978,0.811992 0.116618,0.702492 0.589718,-0.09461 0.774631,0.593077 0.184912,0.687678 -0.624008,0.235213 -0.372581,0.901455 0.251427,0.666241 0.559624,-0.207397 0.875142,0.430993 0.315521,0.638389 -0.56602,0.352321 -0.189447,0.956711 0.376574,0.604389 0.508502,-0.312498 0.942501,0.252069 0.434,0.564568 -0.486194,0.456346 0.001,0.975655 0.487246,0.51931 0.437746,-0.405901 0.973549,0.06314 0.535803,0.469051 -0.387645,0.54191 0.191552,0.956185 0.579198,0.414274 0.349694,-0.483386 0.966709,-0.127878 0.617015,0.355509 -0.274732,0.60761 0.37416,0.900929 0.648889,0.293319 0.249041,-0.542471 0.923555,-0.314168 0.674516,0.228304 -0.15056,0.649325 0.543084,0.810415 0.693646,0.161092 0.138,-0.580679 0.844094,-0.488352 0.706095,0.09232 -0.02078,0.666179 0.690958,0.688851 0.711744,0.02267 0.022,-0.596396 0.73253,-0.643595 0.710539,-0.0472 0.109502,0.657595 0.811993,0.540976 0.702492,-0.116617 -0.09461,-0.589189 0.593076,-0.774102 0.687678,-0.184914 0.235214,0.623481 0.901456,0.372054 0.666241,-0.251427 -0.207397,-0.559624 0.430993,-0.875142 0.638389,-0.31552 0.352848,0.566019 0.957235,0.189446 0.60439,-0.376573 -0.313023,-0.508501 0.251545,-0.942501 0.564568,-0.434001 0.456344,0.486194 0.975656,-9.99e-4 0.519309,-0.487249 -0.405902,-0.437748 0.06314,-0.973551 0.469051,-0.535803 0.54191,0.388171 0.956184,-0.191026 0.414276,-0.579199 -0.483386,-0.350219 -0.127877,-0.967236 0.355509,-0.617014 0.60761,0.274731 0.900928,-0.374158 0.293319,-0.64889 -0.542471,-0.249042 -0.314166,-0.923557 0.228303,-0.674515 0.649324,0.151088 0.810414,-0.542557 0.16109,-0.693646 -0.580679,-0.138525 -0.488355,-0.844621 0.09232,-0.706093 0.666182,0.02131 0.688854,-0.69043 0.02267,-0.711744 -0.596395,-0.02252 -0.643596,-0.733058 -0.0472,-0.710538 0.657597,-0.108975 0.540978,-0.811466 -0.116618,-0.702491 -0.58919,0.09408 -0.774104,-0.593603 -0.184913,-0.687678 0.624008,-0.235213 0.372581,-0.901454 -0.251428,-0.666242 -0.56015,0.207396 -0.875669,-0.430994 -0.315519,-0.638388 0.56602,-0.352321 0.189447,-0.956711 -0.376573,-0.604387 -0.508501,0.3125 -0.942501,-0.25207 -0.434001,-0.564568 0.486195,-0.455818 -9.99e-4,-0.975128 -0.487248,-0.519311 -0.437221,0.405902 -0.973024,-0.06315 -0.535803,-0.46905 0.387645,-0.542435 -0.191553,-0.95671 -0.579197,-0.414275 -0.35022,0.483385 -0.967235,0.127878 -0.617014,-0.355509 0.274731,-0.607083 -0.374158,-0.900403 -0.648891,-0.293318 -0.249042,0.542472 -0.923557,0.314167 -0.674515,-0.228303 0.151088,-0.64985 -0.542557,-0.81094 -0.693646,-0.16109 -0.138526,0.580679 -0.84462,0.488354 -0.706095,-0.09232 0.02131,-0.666182 -0.690431,-0.688853 -0.02224,-7.08e-4 -0.04303,-5.08e-4 -0.06262,0 z m -0.188921,1.518738 a 6.373964,6.373964 0 0 1 6.374383,6.373858 6.373964,6.373964 0 0 1 -6.374383,6.373859 6.373964,6.373964 0 0 1 -6.373859,-6.373859 6.373964,6.373964 0 0 1 6.373859,-6.373858 z"></path><path id="SvgjsPath1035" style="fill:none;stroke:#11292f;stroke-width:0.453163;stroke-linecap:round;stroke-dasharray:0.453163, 0.498479;stroke-dashoffset:0;stroke-opacity:1;stop-color:#000000" d="M 3.5669466,26.313104 C 3.6845304,25.265455 4.5128523,25.069627 4.9902412,24.772501 L 26.54237,19.327111 C 37.943578,18.197583 38.588296,35.329184 26.353329,34.265046 22.588116,33.309084 5.3683667,29.608273 4.4071928,28.475871 3.4760788,27.378884 3.3687049,27.166904 3.6789117,25.936164" sodipodi:nodetypes="ccccsc"></path><path id="SvgjsPath1034" style="fill:#999999;stroke:#11292f;stroke-width:1.05738;stroke-linecap:round;stop-color:#000000;stroke-opacity:1" d="m 38.035795,20.7165 -9.792944,6.463872 c -0.851355,0.421472 -1.124977,-0.487629 -0.533702,-0.869615 l 10.197246,-5.8051 c 0.86269,-0.44283 0.752777,-0.231645 0.1294,0.210843 z" sodipodi:nodetypes="ccccc"></path><path id="SvgjsPath1033" style="fill:#11292f;stroke:#000000;stroke-width:0.119363;stroke-linecap:round;stroke-dasharray:none;stop-color:#000000;fill-opacity:1" d="m 38.476887,19.569275 c -0.912646,3.56e-4 -1.82491,0.0014 -2.737523,4.94e-4 -0.166817,-0.0053 -0.315422,0.09853 -0.39918,0.237337 -0.152782,0.280406 -0.21276,0.598974 -0.315792,0.899514 -0.13008,0.291215 0.180931,0.561719 0.454444,0.578294 1.782164,0.0066 3.564466,5.77e-4 5.346752,0.0024 0.203929,0.01931 0.426058,-0.04279 0.527966,-0.237337 0.152781,-0.28041 0.21276,-0.598979 0.315791,-0.899517 0.13008,-0.291215 -0.180931,-0.561227 -0.454444,-0.5778 -0.912551,-0.0034 -1.825369,-0.0039 -2.738014,-0.0035 z m -2.578146,0.40066 c 0.0027,-2.3e-5 0.0056,-8.7e-5 0.0084,0 0.97575,9.89e-4 0.436006,-0.0016 1.411689,0.0019 0.146218,0.0089 0.312305,0.153204 0.242765,0.308884 -0.05507,0.160666 -0.08708,0.330694 -0.168751,0.480596 -0.05448,0.104003 -0.173223,0.137133 -0.282239,0.126811 -0.952795,-9.89e-4 -0.389879,0.002 -1.342609,-0.0015 -0.146218,-0.0089 -0.312304,-0.153203 -0.242765,-0.308884 0.05507,-0.160666 0.08708,-0.330694 0.168752,-0.480595 0.04338,-0.07188 0.119,-0.126552 0.20477,-0.127305 z m 3.577824,0 c 0.0027,-2.3e-5 0.0056,-8.7e-5 0.0084,0 0.97575,9.89e-4 0.436003,-0.0016 1.411688,0.0019 0.146218,0.0089 0.312305,0.153207 0.242765,0.308887 -0.05507,0.160666 -0.08708,0.330693 -0.16875,0.480596 -0.05448,0.104002 -0.173224,0.137134 -0.282239,0.126811 -0.952796,-9.89e-4 -0.389879,0.002 -1.34261,-0.0015 -0.146218,-0.0089 -0.312304,-0.153203 -0.242766,-0.308883 0.05507,-0.160666 0.08708,-0.330694 0.168752,-0.480596 0.04337,-0.07188 0.119002,-0.126552 0.204771,-0.127304 z"></path><circle style="fill:#000000;stroke:#000000;stroke-width:0.163542;stroke-linecap:round;stroke-dasharray:none;stop-color:#000000" id="SvgjsCircle1032" cx="40.212646" cy="16.473324" r="0.44471768" transform="rotate(5.6656297)"></circle></g><g inkscape:groupmode="layer" id="SvgjsG1031" inkscape:label="text" style="display:inline"><text xml:space="preserve" style="font-style:normal;font-variant:normal;font-weight:bold;font-stretch:normal;font-size:5.82083px;line-height:1.25;font-family:FreeMono;-inkscape-font-specification:'FreeMono Bold';writing-mode:lr-tb;display:inline;fill:#e3000b;fill-opacity:1;stroke-width:0.364578" id="SvgjsText1030" transform="translate(0,-0.31864464)"><textPath xlink:href="#path15466-3-6" id="SvgjsTextPath1029" style="font-style:normal;font-variant:normal;font-weight:bold;font-stretch:normal;font-size:5.82083px;font-family:FreeMono;-inkscape-font-specification:'FreeMono Bold';writing-mode:lr-tb;fill:#e3000b;fill-opacity:1">c2dParseR</textPath></text></g></svg><style>@media (prefers-color-scheme: light) { :root { filter: none; } }
@media (prefers-color-scheme: dark) { :root { filter: none; } }
</style></svg>